{
    "asset" : {
        "generator" : "Khronos glTF Blender I/O v3.4.50",
        "version" : "2.0"
    },
    "scene" : 0,
    "scenes" : [
        {
            "name" : "Scene",
            "nodes" : [
                0,
                1
            ]
        }
    ],
    "nodes" : [
        {
            "mesh" : 0,
            "name" : "Donut"
        },
        {
            "mesh" : 1,
            "name" : "Icing"
        }
    ],
    "materials" : [
        {
            "doubleSided" : true,
            "name" : "Material.002",
            "pbrMetallicRoughness" : {
                "baseColorTexture" : {
                    "index" : 0
                },
                "metallicFactor" : 0,
                "roughnessFactor" : 0.5
            }
        },
        {
            "doubleSided" : true,
            "name" : "Material.001",
            "pbrMetallicRoughness" : {
                "baseColorFactor" : [
                    0.7948289513587952,
                    0.14834155142307281,
                    0.33797645568847656,
                    1
                ],
                "metallicFactor" : 0,
                "roughnessFactor" : 0.15000000596046448
            }
        }
    ],
    "meshes" : [
        {
            "name" : "Torus",
            "primitives" : [
                {
                    "attributes" : {
                        "POSITION" : 0,
                        "TEXCOORD_0" : 1,
                        "NORMAL" : 2
                    },
                    "indices" : 3,
                    "material" : 0
                }
            ]
        },
        {
            "name" : "Torus.002",
            "primitives" : [
                {
                    "attributes" : {
                        "POSITION" : 4,
                        "TEXCOORD_0" : 5,
                        "NORMAL" : 6
                    },
                    "indices" : 7,
                    "material" : 1
                }
            ]
        }
    ],
    "textures" : [
        {
            "sampler" : 0,
            "source" : 0
        }
    ],
    "images" : [
        {
            "bufferView" : 4,
            "mimeType" : "image/png",
            "name" : "Donut Base"
        }
    ],
    "accessors" : [
        {
            "bufferView" : 0,
            "componentType" : 5126,
            "count" : 2673,
            "max" : [
                0.0965319499373436,
                0.04189426824450493,
                0.09656015783548355
            ],
            "min" : [
                -0.09521923959255219,
                -0.04065492004156113,
                -0.09479325264692307
            ],
            "type" : "VEC3"
        },
        {
            "bufferView" : 1,
            "componentType" : 5126,
            "count" : 2673,
            "type" : "VEC2"
        },
        {
            "bufferView" : 2,
            "componentType" : 5126,
            "count" : 2673,
            "type" : "VEC3"
        },
        {
            "bufferView" : 3,
            "componentType" : 5123,
            "count" : 15360,
            "type" : "SCALAR"
        },
        {
            "bufferView" : 5,
            "componentType" : 5126,
            "count" : 44808,
            "max" : [
                0.0974021852016449,
                0.04500918090343475,
                0.09798610955476761
            ],
            "min" : [
                -0.09748030453920364,
                -0.01675337739288807,
                -0.09670299291610718
            ],
            "type" : "VEC3"
        },
        {
            "bufferView" : 6,
            "componentType" : 5126,
            "count" : 44808,
            "type" : "VEC2"
        },
        {
            "bufferView" : 7,
            "componentType" : 5126,
            "count" : 44808,
            "type" : "VEC3"
        },
        {
            "bufferView" : 8,
            "componentType" : 5123,
            "count" : 268032,
            "type" : "SCALAR"
        }
    ],
    "bufferViews" : [
        {
            "buffer" : 0,
            "byteLength" : 32076,
            "byteOffset" : 0,
            "target" : 34962
        },
        {
            "buffer" : 0,
            "byteLength" : 21384,
            "byteOffset" : 32076,
            "target" : 34962
        },
        {
            "buffer" : 0,
            "byteLength" : 32076,
            "byteOffset" : 53460,
            "target" : 34962
        },
        {
            "buffer" : 0,
            "byteLength" : 30720,
            "byteOffset" : 85536,
            "target" : 34963
        },
        {
            "buffer" : 0,
            "byteLength" : 35238,
            "byteOffset" : 116256
        },
        {
            "buffer" : 0,
            "byteLength" : 537696,
            "byteOffset" : 151496,
            "target" : 34962
        },
        {
            "buffer" : 0,
            "byteLength" : 358464,
            "byteOffset" : 689192,
            "target" : 34962
        },
        {
            "buffer" : 0,
            "byteLength" : 537696,
            "byteOffset" : 1047656,
            "target" : 34962
        },
        {
            "buffer" : 0,
            "byteLength" : 536064,
            "byteOffset" : 1585352,
            "target" : 34963
        }
    ],
    "samplers" : [
        {
            "magFilter" : 9729,
            "minFilter" : 9987
        }
    ],
    "buffers" : [
        {
            "byteLength" : 2121416,
            "uri" : "data:application/octet-stream;base64,"
        }
    ]
}
